<svg version="1.0" xmlns="http://www.w3.org/2000/svg" width="225.000000pt" height="225.000000pt" viewBox="0 0 225.000000 225.000000" preserveAspectRatio="xMidYMid meet"> <g transform="translate(0.000000,225.000000) scale(0.100000,-0.100000)" fill="#f0a000" stroke="none"><path d="M1380 2241 c44 -14 156 -70 181 -91 47 -40 89 -83 89 -91 0 -5 5 -9 10 -9 17 0 -9 41 -53 83 -22 20 -44 37 -49 37 -5 0 -16 7 -24 15 -9 8 -12 15 -8 15 8 0 100 -57 121 -75 7 -5 19 -16 27 -22 8 -7 19 -13 25 -13 11 0 101 -103 101 -117 0 -5 8 -18 18 -29 29 -33 97 -175 128 -267 25 -75 30 -84 37 -63 6 19 0 41 -27 95 -20 39 -36 79 -36 89 0 10 -9 28 -21 40 -14 15 -18 29 -14 43 5 13 3 19 -3 15 -11 -6 -25 9 -35 37 -6 16 -4 16 23 -3 17 -12 35 -31 42 -43 6 -12 20 -28 30 -35 13 -9 17 -20 13 -33 -5 -16 -3 -20 12 -17 13 2 18 -3 17 -19 0 -12 3 -20 8 -17 4 3 8 -7 8 -23 0 -21 3 -24 10 -13 7 11 11 3 16 -30 5 -33 9 -39 14 -25 7 19 7 19 14 -2 4 -13 4 -27 1 -33 -10 -16 27 -72 38 -57 5 7 6 3 2 -11 -4 -13 -1 -29 5 -37 7 -8 10 -22 6 -30 -3 -9 -2 -13 4 -10 6 4 10 -5 10 -20 0 -17 4 -24 12 -19 7 4 8 3 4 -4 -3 -6 2 -37 13 -69 22 -65 37 -133 32 -148 -2 -5 3 -43 10 -83 10 -62 10 -75 -2 -83 -12 -8 -12 -10 1 -19 28 -18 13 -374 -18 -450 -10 -24 -11 -23 -13 15 -2 33 -3 35 -6 10 -2 -16 -8 -49 -14 -71 -9 -34 -15 -41 -30 -37 -21 6 -26 29 -6 36 7 4 6 6 -4 6 -18 1 -32 40 -24 63 3 8 -2 32 -11 53 -17 42 -25 76 -26 113 0 12 -4 22 -9 22 -4 0 -11 16 -15 35 -3 19 -10 38 -16 41 -5 3 -6 15 -2 26 4 13 2 18 -4 14 -5 -3 -13 1 -16 10 -9 24 -7 31 5 14 9 -12 10 -12 5 3 -3 10 -6 23 -6 28 0 5 -7 9 -15 9 -9 0 -15 9 -15 23 0 12 -8 39 -18 58 -17 33 -17 36 0 54 10 10 18 23 18 29 -1 6 -9 1 -20 -12 -20 -24 -80 -48 -80 -32 0 5 5 12 10 15 19 12 3 146 -20 165 -3 3 -14 31 -25 62 -13 38 -22 55 -29 48 -6 -6 -4 -22 7 -45 9 -20 17 -41 17 -48 0 -7 11 -33 25 -59 49 -93 22 -157 -70 -163 -45 -3 -81 7 -155 43 -41 20 -45 23 -90 62 -19 16 -41 30 -48 30 -16 0 50 -57 103 -90 44 -27 40 -38 -5 -15 -18 9 -41 18 -53 21 -11 2 -23 8 -26 12 -3 5 -15 12 -27 16 -11 3 -41 25 -66 49 -25 23 -48 43 -52 44 -40 15 -65 35 -59 50 4 10 2 14 -5 9 -8 -4 -8 3 -2 25 5 18 12 34 15 37 6 6 65 -57 65 -70 0 -4 5 -8 10 -8 18 0 10 14 -30 59 -22 23 -47 52 -55 64 -8 11 -17 18 -21 14 -3 -3 1 -13 10 -22 20 -21 20 -25 -5 -54 -20 -24 -20 -24 -38 -4 -10 11 -22 29 -25 41 -4 12 -12 20 -17 17 -5 -4 -13 4 -18 17 -5 13 -18 32 -30 42 -11 11 -21 25 -21 33 0 8 -4 12 -9 9 -5 -4 -15 7 -23 24 -7 16 -16 30 -20 30 -4 0 -5 7 -2 15 4 8 1 15 -5 15 -6 0 -17 12 -24 28 -6 15 -20 33 -29 40 -10 7 -18 18 -18 24 0 6 -7 20 -17 30 -15 17 -15 18 0 18 10 0 17 5 17 10 0 20 -31 9 -41 -14 -6 -13 -20 -27 -31 -29 -11 -3 -18 -11 -17 -19 3 -26 -1 -38 -22 -57 -13 -11 -18 -24 -14 -32 5 -8 4 -10 -3 -5 -7 4 -12 1 -12 -9 0 -9 -4 -13 -10 -10 -5 3 -10 -1 -10 -9 0 -19 -11 -21 -28 -4 -9 9 -12 9 -12 0 0 -7 5 -12 10 -12 6 0 10 -7 10 -16 0 -8 -5 -12 -10 -9 -6 4 -9 2 -8 -4 5 -16 -36 -71 -52 -71 -12 0 -12 -2 -2 -8 10 -7 7 -15 -10 -37 -35 -45 -126 -186 -142 -221 -8 -17 -19 -35 -25 -38 -6 -4 -9 -12 -5 -17 3 -5 0 -8 -8 -7 -7 2 -12 -5 -12 -14 1 -11 -4 -14 -13 -11 -12 5 -14 1 -8 -15 3 -12 2 -22 -3 -22 -5 0 -15 -13 -22 -30 -7 -16 -19 -30 -26 -30 -8 0 -14 -9 -14 -20 0 -10 -9 -27 -19 -37 -11 -10 -21 -27 -23 -38 -1 -11 -12 -25 -23 -32 -11 -6 -20 -19 -20 -29 0 -9 -7 -19 -15 -21 -13 -4 -13 -3 0 6 8 5 11 13 7 18 -12 11 -28 -19 -23 -40 3 -11 2 -16 -1 -13 -9 9 -44 -14 -38 -25 4 -5 1 -9 -4 -9 -6 0 -11 -7 -11 -15 0 -9 -6 -12 -17 -8 -13 5 -15 2 -10 -12 7 -16 5 -16 -10 -4 -9 8 -14 9 -10 3 6 -11 -27 -54 -41 -54 -5 0 -13 5 -20 12 -9 9 -11 4 -8 -20 4 -24 1 -30 -11 -25 -8 3 -18 2 -22 -3 -3 -5 -21 -17 -39 -27 -25 -14 -33 -15 -37 -5 -9 24 14 185 25 168 4 -6 7 12 8 39 0 28 6 59 11 70 6 11 11 31 11 45 0 13 7 31 15 39 8 8 12 17 9 20 -3 3 -3 15 1 28 6 17 9 19 16 8 5 -9 7 -2 4 20 -2 20 3 47 13 65 9 17 15 39 13 50 -1 10 2 15 7 12 11 -6 22 25 22 63 0 16 4 21 15 17 11 -4 15 2 15 20 0 14 -4 22 -10 19 -6 -3 -7 1 -4 9 3 9 9 16 13 16 12 0 32 51 25 62 -4 7 -2 8 4 4 7 -4 12 -1 12 8 0 8 7 22 16 30 8 9 16 26 17 38 1 21 13 40 44 73 7 7 9 15 6 19 -9 9 18 37 29 30 6 -4 8 2 4 14 -5 15 -1 24 15 32 13 7 17 15 11 19 -7 4 -6 13 4 25 10 14 14 16 14 5 1 -10 3 -9 11 4 5 9 7 22 3 29 -4 6 -3 8 4 4 6 -3 21 11 35 34 13 22 27 37 30 33 4 -3 7 3 7 14 0 12 7 23 15 27 8 3 15 1 15 -5 0 -6 4 -7 10 -4 5 3 10 12 10 20 0 20 97 113 117 111 10 0 17 5 16 11 -2 7 16 27 40 43 23 17 50 37 60 46 10 8 22 12 27 9 6 -4 10 1 10 9 0 9 3 15 8 14 11 -4 102 35 102 44 0 4 6 5 14 2 8 -3 23 -1 33 6 16 9 15 10 -7 5 -21 -5 -22 -4 -7 5 10 6 23 10 30 7 7 -2 26 2 44 10 60 24 76 9 21 -20 l-33 -18 30 6 c16 4 36 16 43 27 13 17 23 20 68 16 42 -4 59 -10 79 -32 26 -28 33 -42 15 -31 -5 3 -10 1 -10 -4 0 -6 -17 -22 -37 -35 -57 -37 -118 -94 -110 -102 4 -4 15 1 25 12 33 35 104 89 133 101 16 7 29 18 29 25 -1 17 -35 58 -49 58 -6 0 -11 4 -11 9 0 5 -15 19 -32 31 l-33 21 35 -7 c40 -7 38 -7 65 -4 20 1 20 1 0 10 -18 8 -17 9 8 9 29 1 39 21 9 21 -10 0 -42 -7 -72 -16 -30 -8 -103 -28 -161 -44 -193 -52 -341 -141 -505 -305 -162 -161 -272 -338 -383 -617 -84 -210 -158 -490 -175 -665 -6 -63 -3 -64 77 -23 144 73 285 221 422 445 36 61 81 133 98 160 52 83 293 450 325 494 l30 42 26 -56 c41 -89 118 -194 228 -306 57 -57 112 -111 123 -119 11 -8 39 -30 61 -47 58 -46 178 -101 248 -114 66 -12 146 -4 190 18 27 14 31 14 43 -3 37 -51 133 -348 152 -473 21 -134 60 -166 122 -99 53 58 71 167 70 423 0 193 -9 277 -51 450 -73 304 -247 577 -451 708 -30 19 -65 45 -79 57 -45 39 -138 80 -207 90 -79 11 -98 11 -63 1z"></path> <path d="M1468 2158 c9 -9 15 -9 24 0 9 9 7 12 -12 12 -19 0 -21 -3 -12 -12z"></path> <path d="M1005 2100 c-19 -8 -19 -9 2 -9 12 -1 25 4 28 9 7 12 -2 12 -30 0z"></path> <path d="M1355 2020 c-8 -14 13 -22 31 -12 14 8 14 10 -5 15 -11 3 -23 1 -26 -3z"></path> <path d="M1540 2010 c-36 -3 -71 -9 -79 -14 -7 -5 -37 -14 -65 -21 -28 -7 -41 -13 -28 -14 12 -1 55 8 94 19 40 11 95 20 123 20 27 0 57 5 65 10 11 7 7 9 -15 7 -16 -1 -59 -4 -95 -7z"></path> <path d="M1700 1969 c0 -8 11 -37 24 -65 13 -27 36 -87 51 -134 15 -47 34 -99 41 -117 8 -17 14 -39 15 -50 0 -10 3 -13 5 -6 5 12 -12 71 -60 209 -31 89 -75 184 -76 163z"></path> <path d="M1310 1950 c0 -5 7 -10 15 -10 8 0 15 5 15 10 0 6 -7 10 -15 10 -8 0 -15 -4 -15 -10z"></path> <path d="M1661 1946 c-9 -10 -8 -15 4 -20 10 -4 15 1 15 14 0 24 -4 25 -19 6z"></path> <path d="M1095 1924 c-8 -9 -22 -29 -30 -45 -9 -16 -20 -29 -25 -29 -6 0 -10 -8 -10 -17 0 -14 3 -14 20 5 11 12 20 26 20 31 0 5 14 23 31 40 17 17 26 31 20 31 -5 0 -17 -7 -26 -16z"></path> <path d="M1220 1909 c-64 -35 -87 -55 -51 -44 33 10 139 75 121 74 -8 0 -40 -14 -70 -30z"></path> <path d="M1400 1922 c0 -14 11 -21 26 -15 21 8 17 23 -6 23 -11 0 -20 -4 -20 -8z"></path> <path d="M1105 1830 c-17 -18 -17 -20 -2 -14 9 3 17 10 17 14 0 5 8 11 18 13 14 4 14 5 1 6 -9 0 -24 -8 -34 -19z"></path> <path d="M995 1790 c-10 -11 -15 -20 -11 -20 11 0 39 30 34 36 -3 2 -13 -5 -23 -16z"></path> <path d="M1705 1790 c-7 -12 2 -30 16 -30 12 0 12 27 0 35 -5 3 -12 1 -16 -5z"></path> <path d="M1810 1785 c0 -8 5 -15 10 -15 6 0 10 7 10 15 0 8 -4 15 -10 15 -5 0 -10 -7 -10 -15z"></path> <path d="M1125 1780 c-3 -5 3 -10 14 -10 12 0 21 5 21 10 0 6 -6 10 -14 10 -8 0 -18 -4 -21 -10z"></path> <path d="M1070 1771 c0 -10 54 -117 105 -206 34 -61 76 -117 82 -111 4 4 -31 60 -47 76 -5 5 -30 52 -92 176 -35 70 -48 87 -48 65z"></path> <path d="M1365 1764 c-42 -21 -65 -53 -65 -92 0 -49 25 -89 64 -102 123 -40 192 154 71 200 -34 13 -34 13 -70 -6z m97 -31 c8 -10 18 -26 21 -36 8 -23 -26 -93 -52 -107 -76 -40 -152 86 -85 139 33 26 95 28 116 4z"></path> <path d="M1036 1715 c-3 -9 0 -15 9 -15 8 0 15 7 15 15 0 8 -4 15 -9 15 -5 0 -11 -7 -15 -15z"></path> <path d="M1744 1619 c-3 -5 0 -9 6 -9 6 0 8 -5 4 -11 -4 -7 1 -7 16 1 12 6 19 14 16 18 -11 10 -36 11 -42 1z"></path> <path d="M1542 1579 c2 -6 8 -10 13 -10 5 0 11 4 13 10 2 6 -4 11 -13 11 -9 0 -15 -5 -13 -11z"></path> <path d="M1992 1572 c-9 -6 -10 -30 -4 -102 9 -103 -1 -219 -23 -264 -11 -22 -12 -32 -4 -42 15 -19 30 -18 23 1 -4 8 -3 23 1 33 18 42 29 236 18 299 -6 30 -6 58 -1 67 10 18 9 19 -10 8z"></path> <path d="M1840 1566 c0 -9 50 -12 62 -5 8 6 -1 9 -24 9 -21 0 -38 -2 -38 -4z"></path> <path d="M1708 1554 c-3 -3 -38 -10 -77 -15 -62 -9 -163 -37 -136 -38 6 0 73 13 150 28 80 17 125 29 104 30 -20 1 -38 -2 -41 -5z"></path> <path d="M1845 1479 l0 -59 35 1 c22 1 27 3 15 6 -27 7 -35 21 -35 65 0 20 -3 39 -7 41 -5 3 -8 -21 -8 -54z"></path> <path d="M1892 1519 c2 -6 8 -10 13 -10 5 0 11 4 13 10 2 6 -4 11 -13 11 -9 0 -15 -5 -13 -11z"></path> <path d="M1432 1485 c-7 -8 -25 -18 -39 -22 -15 -3 -39 -17 -53 -30 -19 -19 -8 -15 54 17 91 46 97 50 70 50 -10 -1 -25 -7 -32 -15z"></path> <path d="M1300 1474 c0 -9 5 -14 12 -12 18 6 21 28 4 28 -9 0 -16 -7 -16 -16z"></path> <path d="M1577 1460 c-3 -13 0 -20 9 -20 8 0 14 9 14 20 0 11 -4 20 -9 20 -5 0 -11 -9 -14 -20z"></path> <path d="M1235 1407 c-4 -10 -5 -21 -1 -24 10 -10 18 4 13 24 -4 17 -4 17 -12 0z"></path> <path d="M1377 1380 c3 -11 9 -20 14 -20 5 0 9 9 9 20 0 11 -6 20 -14 20 -9 0 -12 -7 -9 -20z"></path> <path d="M970 1302 l-90 -87 11 -40 c6 -22 17 -47 25 -55 12 -12 12 -9 4 20 -6 19 -10 44 -9 55 0 20 0 20 10 0 8 -17 9 -16 4 6 -5 26 15 56 28 42 4 -3 7 1 7 9 0 14 35 49 104 103 29 23 33 35 11 35 -9 0 -56 -39 -105 -88z"></path> <path d="M1307 1311 c-4 -15 1 -24 15 -32 11 -6 22 -8 26 -5 3 3 0 6 -7 6 -7 0 -10 4 -7 9 3 4 -1 16 -8 26 -12 17 -13 17 -19 -4z"></path> <path d="M1921 1302 c-7 -13 -10 -33 -8 -45 4 -19 4 -18 6 5 0 14 6 28 13 30 6 2 9 11 6 18 -3 11 -8 9 -17 -8z"></path> <path d="M1415 1259 c37 -32 52 -36 32 -8 -11 15 -49 39 -62 39 -3 0 10 -14 30 -31z"></path> <path d="M951 1098 c-67 -68 -102 -151 -108 -252 -7 -109 19 -258 58 -340 16 -33 29 -71 29 -86 0 -31 34 -80 56 -80 8 0 20 12 26 27 7 16 13 30 15 32 1 2 14 -4 27 -13 40 -26 72 -21 84 13 8 21 16 29 36 28 42 0 74 27 68 58 -5 30 -69 98 -113 121 -46 23 -69 82 -69 177 0 50 -5 83 -13 91 -10 11 -12 2 -10 -46 1 -32 5 -63 8 -67 3 -5 -5 -7 -17 -4 -22 4 -22 4 -4 -11 12 -10 16 -21 12 -33 -8 -21 -7 -29 4 -26 15 4 32 -60 18 -68 -7 -4 -2 -8 12 -11 37 -5 34 -25 -5 -32 -19 -4 -33 -11 -30 -16 6 -9 13 -7 62 18 26 14 33 15 32 5 -4 -26 2 -35 14 -24 11 8 20 4 41 -19 15 -17 24 -36 20 -42 -4 -6 -3 -8 3 -5 12 7 25 -17 16 -27 -10 -10 -25 -7 -18 4 3 5 -1 10 -9 10 -10 0 -13 -6 -10 -15 4 -8 1 -15 -5 -15 -6 0 -11 5 -11 10 0 15 -20 12 -20 -2 -1 -7 -11 -26 -24 -41 -18 -23 -28 -27 -49 -22 -15 4 -27 11 -27 16 0 20 -27 7 -44 -22 -16 -27 -20 -29 -28 -15 -5 9 -11 26 -13 37 -2 11 -7 29 -10 40 -4 11 -1 28 7 37 12 15 11 16 -5 3 -25 -19 -33 -6 -16 26 7 16 15 31 17 36 2 4 -1 7 -7 7 -6 0 -11 -7 -11 -16 0 -9 -7 -14 -17 -12 -12 2 -21 18 -27 45 -11 54 -4 70 33 78 17 4 31 13 31 20 0 11 -9 9 -37 -7 -21 -12 -42 -27 -46 -33 -10 -12 -3 53 8 79 6 15 5 18 -6 14 -14 -6 -15 4 -11 119 2 41 3 43 50 57 26 8 37 15 25 15 -12 1 -33 -3 -47 -9 -20 -7 -26 -6 -26 5 0 17 27 45 44 45 6 0 12 9 12 20 0 18 -2 18 -18 3 -10 -9 -18 -13 -18 -9 0 13 50 81 60 82 6 1 15 2 21 3 6 0 8 8 5 17 -5 13 -2 15 15 11 14 -4 19 -2 15 8 -7 19 5 27 21 14 9 -8 13 -8 13 0 0 8 7 8 24 -1 30 -13 39 -33 23 -50 -17 -17 -42 -80 -39 -95 2 -8 -4 -10 -15 -6 -17 6 -17 5 0 -14 9 -11 17 -28 17 -38 0 -30 10 -10 14 26 2 19 15 57 29 86 31 60 25 97 -18 113 -52 20 -81 12 -124 -32z"></path> <path d="M1775 1122 c-13 -9 -17 -32 -6 -32 21 0 41 13 41 26 0 15 -19 18 -35 6z"></path> <path d="M815 1074 c-9 -9 -37 -58 -62 -108 -37 -72 -47 -102 -47 -143 -1 -32 4 -57 13 -65 11 -11 12 -6 7 32 -4 36 0 58 23 110 16 36 34 64 39 63 6 -2 9 3 6 10 -6 18 14 70 24 63 5 -3 18 4 30 14 12 11 31 20 42 20 12 0 18 5 15 10 -10 16 -72 12 -90 -6z"></path> <path d="M1473 1078 c-11 -6 -23 -21 -26 -34 -2 -13 0 -21 4 -18 5 3 9 12 9 20 0 8 9 14 21 14 13 0 18 -4 13 -12 -4 -7 -3 -8 4 -4 13 8 17 46 5 45 -5 0 -18 -5 -30 -11z"></path> <path d="M1373 1063 c15 -2 37 -2 50 0 12 2 0 4 -28 4 -27 0 -38 -2 -22 -4z"></path> <path d="M1500 1012 c0 -21 -57 -112 -70 -112 -4 0 5 -14 20 -30 38 -41 68 -124 76 -208 l7 -68 -58 -57 c-54 -55 -57 -60 -50 -95 3 -20 12 -43 19 -50 13 -14 46 -7 46 10 0 6 -7 8 -15 4 -10 -3 -15 1 -15 13 0 11 -3 26 -6 35 -3 9 4 24 19 38 13 13 27 33 31 46 4 12 11 20 16 17 4 -3 13 2 20 10 7 8 9 15 5 15 -4 0 -2 7 5 15 7 9 19 14 27 11 7 -3 13 -1 13 4 0 6 -4 10 -8 10 -15 0 -35 81 -23 93 16 16 13 27 -5 20 -12 -4 -14 0 -8 21 5 22 4 25 -11 19 -16 -6 -17 -2 -12 33 4 22 2 46 -4 54 -8 11 -9 9 -4 -10 4 -17 -2 -12 -20 18 -27 43 -26 66 0 55 8 -3 15 0 15 7 0 6 -5 8 -11 4 -7 -4 -10 -1 -7 7 3 8 10 13 16 12 6 -2 9 4 6 12 -9 22 19 18 52 -7 47 -37 56 -47 48 -60 -4 -7 -4 -10 0 -6 10 8 47 -23 40 -34 -3 -4 -14 -8 -24 -8 -10 0 -30 -11 -44 -24 -28 -25 -36 -47 -11 -26 8 7 15 10 15 6 0 -3 9 3 20 14 36 36 60 20 63 -43 1 -26 4 -47 7 -47 3 0 6 -36 6 -81 1 -50 -2 -76 -7 -68 -6 9 -7 2 -3 -18 4 -21 2 -33 -4 -33 -6 0 -10 -9 -9 -20 1 -22 13 -27 20 -7 3 6 5 -7 4 -29 -1 -23 -5 -40 -9 -37 -5 2 -8 -5 -8 -17 0 -12 -6 -28 -14 -36 -17 -17 -30 -19 -20 -3 3 6 0 15 -7 20 -10 6 -11 9 -1 9 6 0 12 5 12 10 0 19 -17 10 -28 -15 -9 -19 -8 -27 4 -40 9 -8 22 -15 30 -15 8 0 14 -7 14 -16 0 -8 -4 -12 -10 -9 -5 3 -11 -4 -11 -17 -5 -69 -9 -90 -23 -118 -8 -17 -13 -36 -10 -43 7 -21 -65 -61 -122 -67 -36 -4 -51 -3 -44 4 5 5 10 16 10 24 0 8 -15 -2 -34 -21 -18 -19 -39 -37 -47 -39 -8 -3 -12 -8 -9 -11 9 -9 211 22 227 34 39 33 83 160 83 242 0 33 7 58 21 78 19 27 21 44 22 207 1 164 0 181 -22 237 -29 73 -69 126 -126 165 -50 35 -65 37 -65 12z"></path> <path d="M1380 890 c-20 -12 -5 -24 16 -12 9 5 12 12 7 15 -5 3 -15 2 -23 -3z"></path> <path d="M1556 885 c4 -8 1 -15 -5 -15 -6 0 -11 -5 -11 -12 0 -6 8 -3 20 7 19 17 19 35 0 35 -5 0 -7 -7 -4 -15z"></path> <path d="M2123 850 c0 -25 2 -35 4 -22 2 12 2 32 0 45 -2 12 -4 2 -4 -23z"></path> <path d="M1300 860 c-51 -6 -52 -7 -13 -8 53 -2 73 -10 73 -29 0 -8 4 -11 10 -8 5 3 7 0 4 -8 -3 -8 -15 -19 -27 -25 -14 -7 -17 -11 -7 -11 8 -1 22 -6 30 -11 13 -9 13 -11 0 -19 -17 -12 -10 -23 7 -13 7 4 15 26 19 48 5 34 2 44 -17 65 -22 22 -29 24 -79 19z"></path> <path d="M1185 770 c19 -8 103 -14 94 -6 -2 2 -29 6 -59 9 -34 3 -47 2 -35 -3z"></path> <path d="M905 750 c-4 -7 3 -8 22 -4 38 9 42 14 10 14 -14 0 -29 -5 -32 -10z"></path> <path d="M673 725 c-28 -19 -58 -62 -68 -95 -6 -22 -4 -21 17 7 12 18 28 33 35 33 7 0 10 7 6 18 -5 14 -3 15 8 5 7 -7 26 -13 42 -13 35 0 63 -14 104 -53 29 -27 31 -28 26 -8 -3 13 -12 25 -20 28 -12 5 -12 7 -1 14 10 7 9 9 -4 9 -9 0 -29 5 -45 12 -15 7 -34 12 -42 12 -8 1 -16 7 -17 14 -1 7 0 8 3 2 2 -5 9 -7 14 -4 12 7 -8 34 -25 34 -6 0 -21 -7 -33 -15z"></path> <path d="M2133 690 c0 -25 2 -35 4 -22 2 12 2 32 0 45 -2 12 -4 2 -4 -23z"></path> <path d="M1619 708 c-6 -21 -5 -38 2 -38 5 0 9 9 9 20 0 16 -7 28 -11 18z"></path> <path d="M1366 684 c-9 -23 -7 -34 5 -34 6 0 9 7 5 15 -3 9 0 15 9 15 8 0 15 -5 15 -11 0 -7 10 -9 26 -5 17 5 23 3 19 -4 -3 -5 -1 -10 4 -10 6 0 11 -12 11 -27 0 -23 2 -25 11 -13 8 11 12 12 16 3 5 -14 23 -18 23 -5 0 5 -16 27 -36 50 -28 34 -42 42 -69 42 -21 0 -35 -6 -39 -16z"></path> <path d="M655 621 c-63 -41 -120 -103 -200 -220 -38 -54 -40 -61 -25 -61 6 0 10 6 10 14 0 8 3 16 8 18 4 2 23 23 42 48 19 25 43 51 52 58 10 7 16 17 14 21 -3 4 8 20 25 35 16 15 29 32 29 37 0 5 5 9 11 9 5 0 7 -4 4 -10 -3 -5 -3 -10 2 -10 4 0 16 14 26 31 16 28 20 30 59 26 23 -3 44 -10 46 -16 2 -6 11 -11 20 -11 14 0 14 -2 3 -9 -11 -7 -9 -10 8 -16 18 -5 21 -13 20 -44 -2 -21 -8 -39 -13 -40 -6 -1 -40 -5 -76 -10 l-65 -8 73 -1 c49 -1 83 3 102 13 17 9 30 18 30 20 0 14 -52 83 -81 111 -40 37 -82 42 -124 15z"></path> <path d="M1346 624 c-5 -14 8 -52 23 -64 4 -3 15 -21 25 -40 17 -34 17 -34 11 -5 -4 16 -12 36 -18 44 -12 14 -13 17 -15 59 -2 25 -17 29 -26 6z"></path> <path d="M682 601 c-23 -14 -27 -79 -7 -101 10 -11 24 -20 31 -20 19 0 28 20 15 33 -8 8 -11 6 -11 -7 0 -15 -2 -16 -15 -2 -19 19 -19 60 -1 75 11 10 16 8 21 -9 5 -15 10 -19 17 -12 19 19 -26 58 -50 43z"></path> <path d="M1596 556 c3 -9 11 -16 16 -16 13 0 5 23 -10 28 -7 2 -10 -2 -6 -12z"></path> <path d="M1293 530 c-21 -26 -45 -77 -26 -55 4 6 15 11 23 13 25 6 40 23 40 48 0 31 -10 30 -37 -6z"></path> <path d="M504 513 c-15 -20 -23 -33 -16 -29 13 8 56 66 49 66 -3 0 -17 -17 -33 -37z"></path> <path d="M995 530 c-27 -30 -12 -34 15 -5 13 14 19 25 13 25 -5 0 -18 -9 -28 -20z"></path> <path d="M1308 463 c-22 -3 -28 -10 -28 -29 0 -14 -16 -48 -35 -77 -45 -67 -48 -123 -8 -185 15 -23 35 -42 45 -42 31 0 27 16 -6 28 -26 10 -35 20 -40 43 -15 77 -2 124 46 172 12 12 17 26 12 39 -5 18 -3 20 20 16 20 -4 26 -2 22 8 -3 8 -1 14 4 14 6 0 10 -5 10 -11 0 -5 5 -7 12 -3 8 5 9 2 4 -12 -4 -10 -4 -15 0 -11 4 4 13 -5 21 -19 18 -36 17 -52 -3 -28 -15 18 -15 18 -4 -3 5 -12 14 -24 19 -27 5 -3 12 -22 15 -42 9 -44 -11 -147 -26 -138 -6 4 -8 2 -5 -4 9 -13 -2 -44 -13 -37 -5 3 -12 0 -15 -5 -19 -30 -160 -45 -190 -20 -8 6 -22 10 -32 8 -13 -3 -7 -9 22 -22 56 -24 180 -19 213 9 67 57 83 166 43 288 -23 68 -43 98 -64 96 -7 -1 -24 -4 -39 -6z"></path> <path d="M835 440 c-20 -8 -20 -9 1 -9 27 -1 67 -46 84 -96 15 -45 15 -155 0 -165 -5 -3 -19 -27 -30 -52 -11 -26 -25 -50 -30 -53 -6 -3 -33 -7 -61 -7 -45 -1 -53 2 -78 30 -14 18 -30 32 -34 32 -14 0 -7 -28 14 -54 19 -24 26 -26 94 -26 69 0 75 2 94 28 63 89 74 213 29 317 -27 62 -43 73 -83 55z"></path> <path d="M633 426 c-4 -7 -15 -16 -23 -19 -12 -4 -12 -6 2 -6 10 -1 22 8 28 19 12 22 6 28 -7 6z"></path> <path d="M740 413 c-8 -2 -27 -21 -42 -42 -24 -33 -25 -40 -12 -45 22 -8 31 -7 17 2 -13 8 3 29 56 72 23 19 16 23 -19 13z"></path> <path d="M1513 388 c7 -18 20 -34 28 -36 20 -4 56 24 45 35 -5 4 -11 2 -13 -4 -3 -7 -12 -13 -20 -13 -9 0 -13 6 -9 15 3 9 0 15 -9 15 -8 0 -15 5 -15 10 0 6 -5 10 -10 10 -6 0 -5 -13 3 -32z"></path> <path d="M410 389 c-16 -30 -8 -31 13 -3 10 13 13 24 8 24 -6 0 -15 -9 -21 -21z"></path> <path d="M1160 385 c1 -6 7 -21 16 -35 l15 -25 -7 25 c-7 26 -24 52 -24 35z"></path> <path d="M772 354 c-35 -24 -52 -68 -52 -132 0 -49 4 -64 24 -85 32 -34 73 -45 94 -24 9 9 13 20 9 24 -4 3 -13 1 -19 -5 -33 -33 -73 3 -86 79 -9 51 7 102 41 130 28 22 18 34 -11 13z"></path> <path d="M451 344 c-7 -8 -10 -18 -6 -22 4 -4 10 -1 12 6 3 6 9 10 14 7 5 -4 6 1 3 9 -7 19 -6 19 -23 0z"></path> <path d="M593 316 c24 -24 34 -42 31 -58 -10 -74 -12 -110 -4 -102 5 5 12 30 15 54 3 25 8 60 11 78 6 30 3 33 -30 47 -54 23 -60 18 -23 -19z"></path> <path d="M1310 323 c1 -27 1 -27 15 -9 14 19 12 36 -6 36 -5 0 -9 -12 -9 -27z"></path> <path d="M405 291 c-8 -50 -4 -127 9 -166 17 -53 40 -68 114 -76 77 -8 111 4 130 46 14 31 15 38 3 31 -5 -4 -12 0 -14 6 -4 9 -6 7 -6 -3 -1 -20 -31 -48 -31 -30 0 7 -10 3 -22 -9 -12 -11 -31 -20 -42 -20 -12 0 -32 -3 -45 -7 -18 -5 -22 -3 -16 7 5 8 4 11 -2 7 -10 -6 -34 17 -52 51 -13 24 -15 71 -7 145 7 64 -8 79 -19 18z"></path> <path d="M1470 263 c0 -36 3 -63 7 -60 9 9 10 127 1 127 -5 0 -8 -30 -8 -67z"></path> <path d="M461 294 c-44 -46 -36 -184 9 -184 9 0 21 -5 28 -12 9 -9 12 -8 12 5 0 10 -8 17 -20 17 -11 0 -20 5 -20 11 0 6 -7 17 -15 25 -8 9 -15 27 -15 41 0 32 39 103 57 103 8 0 11 5 8 10 -9 15 -18 12 -44 -16z"></path> <path d="M803 290 c0 -17 5 -29 11 -27 6 2 11 14 11 27 0 13 -5 25 -11 27 -6 2 -11 -10 -11 -27z"></path> <path d="M366 259 c-4 -23 -5 -44 -2 -46 2 -2 7 14 11 37 4 23 5 43 2 46 -2 3 -7 -14 -11 -37z"></path> <path d="M986 236 c-10 -87 -5 -116 8 -46 7 36 16 72 20 81 4 10 2 16 -7 16 -10 0 -17 -17 -21 -51z"></path> <path d="M1323 210 c0 -25 2 -35 4 -22 2 12 2 32 0 45 -2 12 -4 2 -4 -23z"></path> <path d="M823 190 c-6 -15 -7 -26 -1 -29 15 -5 20 5 16 31 l-5 23 -10 -25z"></path> <path d="M1157 191 c-3 -14 0 -21 9 -21 16 0 18 9 5 28 -6 10 -10 9 -14 -7z"></path> <path d="M367 160 c6 -47 25 -86 52 -107 33 -24 71 -44 71 -36 0 4 -17 18 -38 30 -38 21 -62 58 -80 123 -10 34 -10 33 -5 -10z"></path> <path d="M1458 160 c-3 -17 -1 -30 4 -30 4 0 8 14 8 30 0 17 -2 30 -4 30 -2 0 -6 -13 -8 -30z"></path> <path d="M490 165 c0 -8 5 -15 10 -15 6 0 10 7 10 15 0 8 -4 15 -10 15 -5 0 -10 -7 -10 -15z"></path> <path d="M960 107 c0 -7 -19 -33 -42 -57 l-42 -43 76 6 c100 9 158 32 158 65 0 12 -48 13 -56 1 -3 -5 -11 -6 -17 -3 -9 5 -9 3 0 -6 10 -11 15 -11 28 0 8 7 15 8 15 2 0 -16 -29 -23 -69 -17 -27 4 -31 3 -16 -4 19 -9 19 -10 -2 -10 -12 -1 -30 -4 -40 -7 -12 -4 -14 -3 -6 3 13 9 29 83 19 83 -3 0 -6 -6 -6 -13z"></path> <path d="M640 28 c0 -6 -7 -8 -15 -4 -8 3 -15 1 -15 -4 0 -13 30 -13 50 0 9 6 17 5 22 -3 4 -6 10 -8 14 -4 11 10 -2 19 -31 22 -14 2 -25 -1 -25 -7z"></path> <path d="M1275 30 l-40 -7 35 -1 c19 0 46 4 60 8 32 10 2 10 -55 0z"></path> </g></svg>
