<?xml version="1.0" standalone="no"?>
<!DOCTYPE svg PUBLIC "-//W3C//DTD SVG 20010904//EN"
 "http://www.w3.org/TR/2001/REC-SVG-20010904/DTD/svg10.dtd">
<svg version="1.0" xmlns="http://www.w3.org/2000/svg"
 width="630.000000pt" height="630.000000pt" viewBox="0 0 630.000000 630.000000"
 preserveAspectRatio="xMidYMid meet">
<metadata>
Created by potrace 1.14, written by Peter Selinger 2001-2017
</metadata>
<g transform="translate(0.000000,630.000000) scale(0.100000,-0.100000)"
fill="#000000" stroke="none">
<path d="M0 3150 l0 -3150 3150 0 3150 0 0 3150 0 3150 -3150 0 -3150 0 0
-3150z m3828 2875 c197 -30 406 -118 567 -241 55 -42 150 -109 210 -149 426
-284 764 -722 1018 -1316 142 -332 266 -828 307 -1224 17 -165 24 -759 11
-973 -25 -426 -69 -589 -195 -720 -51 -54 -84 -72 -132 -72 -75 0 -126 89
-164 287 -79 415 -267 1030 -389 1272 -47 93 -60 97 -176 48 -80 -34 -165 -47
-311 -47 -188 0 -335 44 -599 178 -182 93 -365 233 -589 452 -378 370 -613
677 -752 978 -26 56 -51 102 -55 102 -11 0 -106 -138 -353 -510 -336 -505
-482 -732 -657 -1015 -267 -431 -328 -528 -403 -632 -256 -360 -550 -654 -811
-812 -119 -72 -251 -133 -282 -129 -26 3 -28 6 -31 55 -7 116 51 455 133 789
199 805 504 1556 842 2073 155 237 268 376 487 599 354 361 654 573 1014 721
160 66 245 92 607 191 297 81 406 103 419 82 12 -20 -24 -42 -70 -42 -52 0
-56 -11 -12 -32 l32 -15 -56 -6 c-34 -4 -88 -1 -139 8 -112 20 -111 20 -49
-21 64 -42 110 -83 110 -99 0 -6 18 -19 40 -29 42 -18 104 -92 115 -138 7 -29
-4 -39 -110 -98 -77 -42 -235 -164 -300 -229 -47 -49 -85 -66 -85 -38 0 21
156 162 255 232 52 36 107 81 122 100 22 28 32 33 53 28 23 -6 24 -5 11 13 -8
10 -38 43 -65 72 -61 63 -107 80 -242 89 l-92 6 -48 -45 c-57 -53 -95 -74
-149 -83 l-40 -6 55 31 c77 43 115 74 106 89 -10 15 -60 6 -144 -25 -34 -13
-84 -24 -110 -24 -27 -1 -62 -9 -82 -20 l-35 -20 43 6 c23 4 42 4 42 0 0 -15
-70 -36 -99 -30 -22 5 -38 0 -64 -20 -39 -30 -191 -95 -222 -96 -29 0 -41 -11
-49 -42 -5 -23 -12 -28 -39 -28 -44 0 -292 -188 -320 -242 -14 -27 -28 -40
-53 -47 -76 -21 -284 -219 -306 -292 -15 -52 -36 -69 -53 -46 -26 36 -72 6
-81 -55 -4 -22 -14 -38 -27 -44 -12 -5 -45 -43 -74 -84 -30 -43 -64 -79 -78
-85 -19 -7 -25 -15 -21 -29 6 -23 -19 -86 -33 -86 -6 0 -11 7 -11 16 0 14 -3
14 -16 3 -8 -7 -22 -25 -30 -41 -12 -23 -12 -32 -2 -49 11 -18 10 -23 -12 -37
-53 -36 -62 -51 -55 -93 6 -35 5 -39 -15 -39 -12 0 -35 -13 -51 -30 -23 -22
-28 -35 -23 -54 5 -21 -3 -36 -44 -83 -58 -68 -75 -99 -92 -171 -7 -29 -24
-67 -38 -83 -13 -17 -30 -47 -37 -67 -8 -22 -20 -38 -32 -40 -14 -2 -19 -12
-19 -42 -2 -45 -39 -129 -63 -138 -34 -12 -55 -62 -27 -62 16 0 26 -22 26 -58
0 -38 -10 -50 -45 -54 -29 -3 -30 -5 -37 -72 -8 -85 -24 -125 -55 -137 -19 -7
-23 -16 -23 -50 0 -24 -13 -69 -32 -112 -27 -62 -32 -84 -33 -154 0 -46 -3
-83 -7 -83 -5 0 -8 5 -8 10 0 6 -6 10 -14 10 -19 0 -40 -64 -32 -96 5 -19 -1
-38 -23 -71 -17 -25 -33 -62 -36 -82 -7 -46 -20 -102 -39 -170 -9 -30 -19 -97
-22 -149 -5 -70 -12 -98 -24 -111 -23 -22 -48 -133 -62 -283 -13 -139 -8 -178
23 -178 26 0 93 35 149 77 34 27 52 34 80 31 l35 -3 0 60 c0 33 2 62 5 64 3 3
17 -3 32 -13 18 -12 37 -16 53 -12 30 8 94 92 95 124 l0 23 31 -21 30 -22 -7
37 -6 36 34 -6 c33 -6 36 -5 46 24 6 17 18 34 27 37 8 3 15 17 15 29 0 28 47
65 82 65 21 0 23 3 20 45 -4 49 17 95 43 95 26 0 26 -20 1 -45 -28 -28 -22
-33 10 -10 12 8 24 29 28 47 4 22 23 48 55 78 33 30 52 58 60 85 6 22 31 65
56 95 29 35 48 69 52 93 3 22 11 43 17 48 6 5 25 20 42 34 18 14 41 44 52 67
11 24 32 54 46 68 23 21 26 29 20 67 -6 41 -6 42 22 40 24 -2 29 2 34 28 4 21
12 31 28 33 13 2 22 10 22 21 0 10 19 48 43 84 23 36 62 102 87 148 48 88 245
392 323 498 51 68 55 85 32 111 -14 16 -13 18 14 23 40 8 119 107 128 160 5
31 9 38 24 34 11 -3 22 -1 25 5 11 17 -5 56 -26 61 -12 3 -20 13 -20 26 0 27
6 26 42 -4 37 -31 51 -28 58 10 4 21 12 31 30 35 16 4 26 14 28 28 2 13 10 22
21 22 13 0 18 8 18 30 0 22 10 42 35 68 47 49 58 72 58 125 0 46 10 60 64 87
15 8 42 35 59 60 17 25 38 50 46 57 20 15 58 17 66 3 10 -16 -15 -40 -41 -40
-30 0 -31 -21 -3 -46 12 -10 32 -41 44 -69 13 -27 37 -63 55 -80 17 -16 50
-61 72 -98 23 -40 49 -72 64 -77 20 -8 23 -14 17 -40 -4 -23 0 -37 14 -53 11
-12 33 -45 48 -74 19 -35 37 -55 56 -62 20 -7 29 -17 29 -31 0 -11 20 -42 44
-68 25 -26 60 -74 78 -107 23 -41 41 -61 58 -65 17 -4 33 -22 51 -57 33 -64
86 -133 104 -133 22 0 105 102 105 128 0 13 -13 41 -30 62 -16 21 -30 43 -30
49 0 23 30 9 57 -26 15 -21 70 -85 122 -143 129 -145 149 -180 102 -180 -11 0
-24 13 -32 32 -17 42 -143 172 -160 166 -14 -5 -41 -68 -54 -125 -6 -28 -4
-33 13 -33 15 0 18 -5 14 -26 -6 -35 26 -67 118 -115 47 -25 114 -75 180 -135
60 -54 131 -108 165 -125 33 -17 75 -41 94 -55 19 -13 42 -24 53 -24 10 0 63
-20 117 -45 54 -25 103 -45 110 -45 28 0 5 25 -71 74 -139 89 -290 217 -275
233 12 11 57 -18 166 -106 109 -88 273 -176 416 -223 99 -32 247 -32 323 1 66
30 106 75 121 139 18 71 1 143 -63 281 -30 64 -57 132 -61 151 -4 19 -19 64
-34 100 -38 89 -43 114 -28 134 12 17 14 17 29 -5 8 -13 30 -64 47 -114 18
-49 51 -127 72 -171 46 -93 68 -197 69 -320 0 -70 -3 -84 -25 -114 -13 -18
-22 -37 -19 -41 18 -30 144 21 205 82 38 38 59 49 59 30 0 -5 -18 -32 -40 -60
-22 -28 -40 -59 -40 -70 0 -10 14 -48 30 -83 17 -36 37 -94 44 -131 17 -80 19
-83 54 -90 23 -5 30 -13 35 -39 4 -18 9 -44 13 -58 7 -25 7 -25 -14 -6 -19 16
-22 17 -22 3 0 -37 20 -67 45 -67 23 0 24 -2 19 -43 -5 -32 -1 -51 14 -77 11
-19 25 -59 31 -88 12 -57 27 -91 47 -107 7 -5 18 -53 24 -105 7 -61 25 -138
51 -214 35 -101 41 -130 40 -196 -1 -65 2 -82 22 -111 12 -19 33 -35 45 -37
l23 -4 -25 -23 c-17 -16 -24 -30 -20 -42 17 -46 74 -58 99 -20 17 26 51 156
61 235 8 66 24 50 24 -25 0 -29 4 -53 10 -53 27 0 66 206 91 485 14 150 18
607 6 677 -5 27 -19 61 -32 77 l-24 28 24 23 c31 29 32 70 5 235 -10 66 -21
163 -24 215 -4 98 -23 184 -82 380 -19 63 -36 135 -37 161 -2 37 -5 45 -18 42
-18 -5 -29 22 -29 70 0 20 -6 30 -20 34 -15 4 -18 11 -14 33 4 17 -2 45 -16
74 -16 36 -20 57 -15 90 7 43 6 43 -19 39 -21 -4 -30 2 -56 43 -26 42 -30 57
-29 109 2 64 -8 125 -20 125 -4 0 -13 -12 -20 -27 -16 -35 -25 -21 -40 66 -12
72 -23 90 -44 73 -20 -17 -27 -5 -27 44 0 33 -5 46 -20 54 -14 7 -20 21 -20
44 0 42 -19 59 -56 50 l-27 -7 6 47 c7 45 5 48 -46 105 -28 32 -68 80 -87 106
-35 48 -144 134 -156 123 -3 -4 3 -27 14 -51 21 -48 63 -84 83 -71 9 5 11 -4
6 -36 -6 -48 9 -96 37 -119 24 -20 45 -64 62 -129 8 -31 46 -122 84 -203 69
-144 89 -213 76 -263 -14 -56 -23 -39 -112 204 -93 255 -237 554 -321 669 -21
28 -53 77 -71 109 -51 89 -204 258 -262 287 -26 13 -70 43 -97 66 -50 44 -195
141 -295 198 -44 24 -58 29 -58 17 0 -18 37 -48 96 -76 80 -39 274 -249 274
-297 0 -25 -28 -13 -50 21 -38 62 -225 231 -307 279 -114 65 -256 135 -353
173 -84 33 -84 33 -42 34 23 0 86 -7 140 -15z m151 -194 c12 -8 12 -12 2 -25
-17 -21 -45 -20 -66 0 -13 14 -14 19 -3 25 17 11 49 11 67 0z m-1219 -169 c0
-20 -28 -32 -69 -31 l-46 1 40 19 c42 19 75 24 75 11z m954 -232 c16 -16 -60
-43 -84 -30 -25 13 -25 26 -2 40 19 11 71 5 86 -10z m685 -16 c-11 -10 -49
-18 -120 -25 -176 -16 -259 -29 -399 -64 -151 -38 -251 -54 -235 -37 6 5 55
22 110 37 55 15 112 33 128 41 15 8 53 20 85 25 57 11 319 36 402 38 40 1 43
0 29 -15z m208 -232 c80 -175 234 -610 273 -775 23 -95 23 -97 10 -97 -5 0
-10 12 -10 28 0 15 -12 59 -26 97 -14 39 -65 183 -113 320 -48 138 -113 309
-144 381 -57 131 -74 193 -41 146 8 -12 31 -57 51 -100z m-1053 92 c22 -8 20
-31 -3 -44 -36 -19 -78 19 -43 39 20 12 26 13 46 5z m926 -43 c0 -36 -17 -53
-42 -40 -24 13 -23 30 3 57 24 27 39 21 39 -17z m-1490 -20 c0 -5 -27 -39 -60
-75 -33 -37 -69 -86 -80 -110 -11 -23 -38 -60 -60 -81 l-40 -39 0 29 c0 22 9
37 33 56 18 15 51 57 72 94 49 84 135 164 135 126z m440 -6 c-18 -21 -182
-122 -255 -157 -68 -32 -105 -38 -85 -13 20 24 177 116 260 152 84 37 98 40
80 18z m404 -30 c11 -30 -62 -56 -83 -31 -18 21 -8 44 21 48 32 5 56 -2 62
-17z m-803 -211 c-18 -8 -44 -28 -58 -44 -30 -36 -64 -43 -40 -9 24 33 79 69
106 68 25 -1 24 -1 -8 -15z m-321 -115 c0 -14 -67 -79 -81 -79 -17 0 -9 14 28
52 38 39 53 47 53 27z m2165 -19 c9 -29 -4 -62 -23 -58 -18 3 -28 39 -18 64 8
21 34 17 41 -6z m-277 -2 c14 -14 16 -74 2 -83 -16 -10 -49 14 -56 40 -10 42
26 71 54 43z m-1513 -18 c17 -28 -41 -52 -74 -31 -12 8 -12 12 -2 25 15 18 66
22 76 6z m-29 -363 c81 -159 157 -301 169 -315 33 -40 125 -183 125 -195 0
-22 -64 52 -125 143 -122 185 -382 681 -368 703 12 20 53 -48 199 -336z m776
320 c106 -47 163 -145 156 -264 -6 -111 -71 -212 -163 -254 -53 -25 -156 -25
-210 0 -83 37 -145 148 -145 259 1 105 51 175 177 244 80 44 113 47 185 15z
m-1008 -122 c7 -20 -3 -44 -23 -54 -38 -19 -55 17 -24 51 20 22 39 23 47 3z
m1934 -285 c2 -10 -13 -25 -38 -39 -35 -20 -40 -20 -40 -5 0 9 -7 22 -17 29
-27 20 -5 36 45 33 33 -2 48 -8 50 -18z m-581 -86 c4 -11 -1 -22 -12 -31 -17
-11 -22 -11 -38 6 -11 10 -16 24 -13 30 11 17 56 13 63 -5z m1163 -54 c-10
-24 -11 -54 -4 -123 13 -132 10 -524 -4 -647 -7 -58 -22 -139 -32 -181 -12
-46 -17 -90 -13 -112 7 -46 -15 -51 -46 -11 -26 33 -26 60 -1 119 45 104 63
236 64 465 0 118 -1 277 -4 353 -5 137 -5 139 19 158 30 25 37 18 21 -21z
m-275 10 l20 -8 -20 -8 c-27 -12 -115 -11 -140 0 -18 8 -16 10 15 16 49 10
101 10 125 0z m-400 -29 c-15 -15 -188 -56 -425 -101 -118 -22 -226 -43 -240
-46 -23 -4 -24 -3 -7 10 24 19 234 69 397 96 69 11 148 27 175 35 59 16 114
19 100 6z m289 -102 c3 -17 6 -56 6 -85 0 -77 25 -133 67 -150 18 -8 33 -16
33 -19 0 -3 -31 -5 -70 -5 l-70 0 0 108 c0 113 8 182 20 182 4 0 10 -14 14
-31z m154 19 c15 -15 -3 -38 -29 -38 -22 0 -33 16 -25 35 7 18 37 20 54 3z
m-1188 -89 c-34 -29 -360 -191 -360 -180 0 19 77 72 140 96 36 14 91 43 124
65 38 26 70 40 90 40 l31 -1 -25 -20z m-382 -30 c4 -21 -24 -49 -49 -49 -14 0
-19 7 -19 28 0 16 3 32 7 36 13 13 58 1 61 -15z m726 -55 c0 -36 -17 -56 -44
-51 -21 4 -17 63 6 88 23 25 38 11 38 -37z m-939 -192 c-3 -13 -11 -22 -18
-19 -17 5 -21 52 -6 79 l12 23 9 -30 c4 -16 6 -40 3 -53z m393 16 c15 -15 16
-75 0 -84 -25 -16 -63 67 -41 89 10 11 28 8 41 -5z m-820 -37 c-2 -8 -50 -55
-108 -103 -129 -107 -227 -209 -232 -240 -2 -18 -8 -22 -30 -20 -37 4 -62 -35
-62 -100 l0 -49 -15 28 -16 28 -3 -48 c-3 -40 11 -115 35 -192 5 -18 4 -18
-11 -6 -26 22 -61 97 -85 182 l-21 76 152 150 c183 180 268 256 326 294 45 28
75 29 70 0z m647 -197 c9 -19 14 -40 12 -47 -2 -7 5 -17 17 -24 20 -12 20 -12
-7 -13 -19 0 -39 10 -59 30 -25 26 -29 35 -23 63 4 17 9 36 12 40 7 12 29 -10
48 -49z m1601 -44 c-15 -18 -26 -44 -26 -60 0 -16 -4 -32 -10 -35 -28 -17 -1
113 32 153 10 12 14 11 21 -6 8 -16 4 -28 -17 -52z m-1349 -51 c41 -29 88 -87
78 -97 -10 -10 -175 121 -175 139 0 13 46 -7 97 -42z m-921 -384 c103 -50 111
-122 34 -304 -45 -107 -67 -179 -84 -283 -9 -47 -26 -50 -26 -4 0 22 -12 52
-35 86 -19 29 -35 53 -35 55 0 2 14 2 32 1 31 -1 33 1 39 47 8 52 51 150 92
211 15 21 27 49 27 61 0 24 -30 55 -77 79 -40 20 -62 20 -69 1 -5 -12 -11 -11
-41 5 -44 23 -53 19 -53 -26 0 -33 -1 -34 -40 -34 -39 0 -40 -1 -40 -34 0 -36
-1 -37 -62 -50 -38 -9 -182 -206 -163 -225 3 -2 23 10 45 28 33 26 41 29 46
17 12 -32 -5 -64 -40 -76 -61 -20 -129 -119 -96 -140 7 -4 42 1 79 11 127 36
149 19 27 -21 -39 -13 -80 -33 -92 -45 -28 -28 -36 -101 -32 -285 l3 -135 28
-3 c15 -2 27 -4 27 -6 0 -1 -7 -22 -15 -47 -17 -50 -35 -168 -28 -186 3 -7 32
7 77 37 89 61 142 85 152 68 11 -17 -30 -45 -91 -63 -31 -9 -61 -25 -70 -37
-32 -47 -9 -224 36 -269 10 -10 30 -19 44 -19 19 0 26 7 33 32 4 18 16 34 25
36 23 5 21 -14 -9 -78 -40 -85 -46 -110 -27 -117 9 -4 29 1 45 10 33 19 33 18
13 -19 -19 -38 -19 -50 5 -146 27 -102 48 -155 66 -162 9 -3 28 15 53 53 22
32 51 66 66 75 29 19 55 15 55 -8 0 -18 70 -46 114 -46 28 0 42 8 77 48 23 26
52 71 65 100 26 57 49 67 64 26 14 -36 46 -28 43 11 -2 29 10 45 35 45 6 0 12
-11 12 -25 0 -20 5 -25 24 -25 46 0 46 75 0 86 -16 4 -24 13 -24 28 0 13 -14
44 -31 69 -48 73 -106 106 -136 76 -19 -19 -33 0 -33 42 0 26 -4 39 -14 39 -7
0 -57 -21 -110 -46 -53 -25 -104 -43 -113 -40 -26 10 2 32 65 50 72 20 85 29
80 52 -2 12 -19 23 -51 32 -43 12 -47 16 -40 35 21 59 -9 161 -53 177 -24 9
-26 14 -19 43 16 63 10 89 -26 120 l-34 29 45 -4 c40 -3 45 -1 42 17 -9 75
-18 264 -12 285 l6 25 16 -25 c20 -31 26 -73 38 -275 15 -262 52 -346 192
-438 93 -62 235 -203 267 -266 52 -102 -6 -183 -142 -198 -70 -8 -86 -17 -108
-68 -41 -94 -109 -109 -216 -50 -35 19 -70 35 -77 35 -8 0 -24 -25 -36 -55
-23 -56 -59 -95 -89 -95 -23 0 -84 66 -111 119 -12 23 -26 71 -31 105 -6 33
-26 99 -45 146 -131 315 -184 569 -184 873 0 265 53 461 173 637 36 52 149
173 191 203 75 54 168 58 262 12z m1942 -27 c3 -22 -3 -32 -30 -48 -39 -24
-81 -23 -86 3 -5 28 53 79 85 75 22 -2 29 -9 31 -30z m-2435 -82 c41 -9 34
-33 -13 -41 -22 -4 -70 -27 -107 -51 -37 -24 -75 -44 -86 -44 -25 0 -59 -80
-60 -142 -1 -31 -5 -48 -13 -48 -17 0 -78 -99 -114 -187 -51 -122 -63 -184
-55 -287 l7 -91 -20 18 c-31 28 -47 140 -33 232 14 97 46 180 137 355 95 181
141 251 178 269 28 13 120 30 141 25 6 -1 22 -5 38 -8z m1640 -10 c8 -19 -10
-81 -26 -95 -11 -8 -13 -6 -13 12 2 52 -86 23 -97 -32 -4 -17 -12 -31 -18 -31
-19 0 -2 70 23 98 50 54 119 79 131 48z m-255 -53 c-15 -2 -42 -2 -60 0 -18 2
-6 4 27 4 33 0 48 -2 33 -4z m380 -153 c228 -152 386 -413 412 -678 12 -119
12 -480 1 -705 l-9 -168 -40 -82 c-53 -109 -51 -103 -62 -241 -16 -212 -90
-444 -181 -571 -35 -48 -45 -53 -184 -82 -110 -23 -334 -53 -397 -53 -57 0
-77 13 -38 25 11 4 59 42 106 86 96 89 123 101 99 43 -8 -20 -15 -38 -15 -40
0 -10 132 -2 187 11 77 18 180 67 222 106 24 21 31 36 31 64 0 19 16 75 35
124 26 68 37 115 46 202 12 123 18 145 43 143 20 -2 31 33 16 50 -6 8 -22 17
-36 20 -38 10 -73 36 -89 65 -11 22 -11 33 0 64 15 44 42 77 62 77 23 0 14
-30 -12 -42 l-25 -11 21 -20 c15 -14 20 -28 17 -48 -4 -23 -1 -29 13 -29 28 0
67 56 79 115 6 30 15 55 20 55 14 0 30 69 30 128 0 55 -5 62 -25 35 -7 -9 -17
-13 -23 -9 -17 10 -15 85 2 92 20 8 26 41 17 97 -6 35 -5 47 5 47 8 0 15 21
20 57 8 70 -2 317 -15 341 -5 9 -14 63 -19 118 -12 114 -29 159 -67 168 -30 8
-56 -5 -108 -50 -20 -19 -44 -34 -53 -34 -9 0 -27 -9 -41 -20 -35 -27 -40 -18
-11 20 36 50 115 102 172 115 39 9 52 16 54 32 4 24 -59 83 -88 83 -16 0 -18
5 -14 28 5 25 -2 36 -59 88 -75 68 -157 117 -190 112 -17 -2 -22 -10 -22 -32
0 -20 -6 -31 -22 -37 -12 -4 -26 -17 -32 -28 -10 -17 -8 -20 17 -23 42 -5 26
-23 -18 -21 -57 3 -61 -22 -16 -111 20 -39 45 -82 56 -96 l21 -25 -3 37 c-5
53 13 31 22 -26 4 -25 3 -75 -2 -112 -10 -74 -2 -89 38 -74 31 12 36 0 25 -51
-12 -53 -7 -62 30 -54 24 6 29 3 29 -13 0 -11 -7 -25 -15 -32 -37 -30 -6 -198
45 -252 34 -36 31 -50 -10 -42 -24 5 -35 0 -60 -24 -19 -20 -28 -36 -24 -47 9
-22 -33 -65 -62 -65 -18 0 -29 -12 -48 -52 -14 -29 -48 -80 -76 -113 l-52 -60
7 -80 c4 -44 9 -84 12 -88 3 -5 19 -7 35 -5 36 6 50 -18 23 -38 -20 -15 -73
-18 -92 -6 -18 11 -52 93 -63 152 -8 40 -6 59 5 87 8 19 76 97 150 173 l136
137 -16 139 c-33 289 -94 460 -217 607 -47 57 -48 60 -29 73 44 31 171 251
171 297 0 56 40 50 148 -23z m42 -295 c10 -12 9 -20 -5 -42 -18 -29 -54 -62
-67 -63 -17 0 -6 32 12 37 16 4 20 14 20 44 0 42 17 52 40 24z m-445 -15 c6
-10 -45 -40 -70 -40 -21 0 -19 27 3 39 22 13 59 14 67 1z m1922 -132 c-2 -18
-4 -4 -4 32 0 36 2 50 4 33 2 -18 2 -48 0 -65z m-2037 40 c18 -13 47 -40 64
-61 26 -33 31 -46 30 -95 0 -31 -6 -77 -13 -101 -12 -42 -50 -91 -71 -91 -19
0 -10 24 17 46 23 18 25 24 14 37 -7 9 -35 23 -63 33 l-50 16 41 25 c35 21 82
80 66 84 -3 1 -10 2 -17 3 -7 0 -15 12 -18 26 -10 41 -60 62 -161 68 -49 3
-87 7 -85 10 7 6 109 19 167 21 33 1 56 -5 79 -21z m-245 -238 c23 -8 6 -9
-70 -5 -55 2 -113 9 -130 15 -23 8 -6 9 70 5 55 -2 114 -9 130 -15z m-840 -20
c6 -9 -58 -30 -101 -33 -36 -3 -32 17 6 30 43 15 87 16 95 3z m-616 -76 c17
-14 31 -32 31 -40 0 -21 -28 -28 -48 -13 -16 13 -16 12 -1 -11 9 -14 27 -27
40 -28 12 -2 58 -17 102 -33 43 -16 91 -29 106 -29 38 0 44 -10 24 -33 -15
-17 -16 -21 -4 -25 38 -13 86 -91 68 -109 -4 -3 -38 24 -77 60 -98 88 -150
115 -259 131 -49 8 -100 21 -112 30 -33 23 -39 20 -33 -14 6 -26 2 -32 -29
-50 -19 -12 -55 -46 -78 -78 -50 -65 -60 -57 -26 19 36 81 110 173 169 213 63
43 86 45 127 10z m3768 -141 c-2 -21 -4 -4 -4 37 0 41 2 58 4 38 2 -21 2 -55
0 -75z m-1352 57 c6 -29 -8 -70 -25 -70 -6 0 -10 18 -10 39 0 72 22 91 35 31z
m-509 -18 c27 -14 125 -120 162 -175 43 -62 25 -93 -24 -40 l-24 26 -24 -22
c-21 -19 -24 -20 -30 -6 -3 9 -6 32 -6 51 0 21 -8 42 -20 54 -11 11 -19 26
-17 33 1 9 -13 11 -55 9 -49 -3 -58 -1 -68 17 -6 13 -21 21 -35 21 -22 0 -25
-4 -25 -35 0 -28 -4 -35 -20 -35 -24 0 -26 26 -6 75 14 33 23 38 81 48 27 4
85 -7 111 -21z m-1858 -162 c24 -11 58 -32 77 -47 69 -58 235 -275 235 -308 0
-26 -113 -74 -200 -84 -88 -11 -287 -15 -278 -5 5 4 282 44 309 44 21 0 45
120 35 174 -5 28 -14 37 -46 50 -45 18 -47 22 -25 47 15 15 14 17 -12 24 -15
3 -38 16 -50 27 -35 33 -180 60 -227 42 -9 -3 -36 -37 -62 -75 -45 -69 -76
-89 -71 -48 3 33 -20 34 -37 1 -8 -16 -45 -62 -81 -101 -36 -39 -65 -80 -65
-91 0 -10 -18 -36 -41 -57 -23 -21 -83 -90 -135 -154 -52 -65 -100 -119 -108
-122 -7 -3 -18 -23 -23 -44 -5 -23 -15 -39 -26 -41 -34 -7 -16 37 66 155 211
303 359 468 513 570 98 65 175 78 252 43z m1668 9 c4 -7 10 -45 14 -86 5 -49
14 -84 27 -101 20 -27 63 -133 63 -155 0 -6 -18 20 -41 58 -22 39 -49 79 -59
90 -26 28 -60 105 -60 138 0 52 36 88 56 56z m-1746 -94 c52 -27 80 -95 45
-109 -10 -4 -21 7 -35 34 -23 44 -38 49 -64 21 -42 -46 -39 -150 5 -197 29
-31 35 -30 43 9 l7 32 19 -24 c26 -31 25 -47 -5 -67 -57 -38 -136 37 -143 137
-6 78 4 126 33 155 28 28 54 30 95 9z m2404 -117 c14 -40 -2 -48 -30 -15 -30
35 -31 49 -2 45 14 -2 26 -14 32 -30z m-762 -49 c-1 -59 -25 -88 -109 -130
l-72 -35 21 40 c27 54 69 114 108 155 37 41 53 32 52 -30z m-2121 9 c-32 -52
-113 -149 -119 -144 -7 7 36 71 88 129 49 55 60 60 31 15z m1284 -24 c-31 -41
-69 -68 -87 -61 -8 3 9 27 46 63 63 61 88 60 41 -2z m920 -176 c95 -43 208
-412 191 -623 -9 -107 -22 -157 -63 -242 -42 -87 -120 -166 -181 -182 -168
-46 -401 -33 -522 29 -85 43 -26 55 65 14 55 -26 62 -26 194 -21 152 5 248 29
300 73 17 14 35 23 40 19 6 -3 20 4 32 16 17 17 20 28 15 61 -4 25 -3 37 3 33
33 -20 74 133 75 275 1 114 -11 167 -51 214 -13 15 -31 42 -40 60 l-15 31 32
-30 33 -30 -6 38 c-7 48 -53 127 -73 127 -12 0 -13 8 -9 34 6 31 5 33 -18 29
-18 -4 -26 0 -30 16 -9 34 -37 26 -37 -10 l0 -32 -47 5 c-67 8 -71 5 -66 -50
5 -50 10 -41 -92 -172 -55 -70 -79 -163 -72 -274 10 -152 23 -177 126 -231 64
-34 73 -58 22 -63 -29 -3 -40 3 -81 46 -108 112 -146 267 -101 404 12 36 42
98 68 139 58 94 89 163 98 216 8 53 27 69 95 81 77 13 86 14 115 0z m-1276
-64 c33 -19 68 -76 104 -166 105 -261 81 -554 -65 -793 -61 -99 -76 -105 -258
-105 -172 0 -208 8 -251 57 -54 62 -83 153 -49 153 5 0 44 -36 87 -79 76 -77
80 -79 137 -86 83 -11 237 9 254 32 8 10 41 71 75 136 34 66 70 133 79 150 15
26 18 57 18 163 0 72 -5 157 -11 189 -30 162 -153 324 -248 326 l-36 1 40 19
c49 23 89 24 124 3z m-629 -20 c0 -25 -65 -84 -91 -84 -22 0 -22 1 8 19 17 11
42 34 54 50 26 36 29 37 29 15z m2330 -59 c6 -15 17 -25 29 -25 25 0 42 -22
39 -51 -4 -37 42 -38 76 -3 22 25 26 26 32 11 7 -21 -18 -52 -58 -73 -38 -20
-61 -17 -86 9 -42 45 -79 157 -52 157 6 0 15 -11 20 -25z m-2073 -66 c-97 -90
-126 -132 -106 -155 9 -11 8 -14 -5 -14 -27 0 -56 19 -56 36 0 20 70 121 111
161 39 37 71 52 114 52 28 1 25 -4 -58 -80z m-827 48 c0 -17 -59 -97 -71 -97
-9 0 23 72 43 98 13 16 28 15 28 -1z m1995 -118 c21 -60 11 -60 -19 0 -30 58
-37 101 -11 64 9 -12 22 -41 30 -64z m-1015 5 c0 -4 -24 -33 -54 -65 -112
-121 -135 -300 -60 -464 51 -112 109 -139 189 -90 22 14 43 25 48 25 17 0 5
-39 -19 -64 -58 -57 -167 -28 -252 69 -46 52 -62 107 -62 208 0 140 30 242 91
312 46 52 119 95 119 69z m-871 -36 c7 -19 4 -25 -13 -31 -11 -5 -24 -15 -29
-23 -8 -13 -37 -20 -37 -8 0 9 22 48 38 67 20 23 31 22 41 -5z m367 -29 c111
-46 110 -44 80 -246 -26 -171 -41 -233 -57 -233 -12 0 -11 55 5 180 8 65 10
117 4 136 -5 18 -38 64 -73 104 -36 40 -65 76 -65 81 0 16 30 10 106 -22z
m1928 15 c7 -18 -15 -74 -37 -92 -13 -11 -16 -10 -22 8 -6 19 1 74 12 93 8 13
41 7 47 -9z m-2427 -281 l-2 -238 27 -56 c36 -73 101 -143 126 -137 15 4 18 1
14 -18 -2 -13 -3 -24 -1 -24 2 0 53 9 113 20 83 14 118 26 148 47 69 50 68 49
77 34 18 -29 81 37 81 85 0 16 1 16 19 0 10 -9 25 -14 35 -10 22 9 20 -11 -8
-71 -27 -58 -72 -105 -118 -122 -42 -15 -203 -16 -288 -2 -116 19 -184 59
-221 131 -61 119 -78 445 -29 572 24 63 29 20 27 -211z m2829 180 c4 -31 4
-98 0 -149 -12 -173 -33 -154 -35 31 -1 162 20 236 35 118z m-2616 17 c9 -17
7 -22 -14 -29 -36 -14 -64 -48 -102 -123 -64 -126 -65 -197 -4 -273 17 -21 30
-44 30 -51 0 -15 31 -34 56 -34 24 0 54 -29 54 -52 0 -22 -1 -22 -42 1 -18 10
-48 22 -65 26 -55 11 -87 74 -98 192 -13 132 33 267 112 332 44 36 58 38 73
11z m850 -9 c20 -38 2 -127 -24 -118 -17 6 -29 62 -22 101 8 40 29 48 46 17z
m-1185 -107 c-4 -36 -13 -84 -20 -107 l-13 -42 -1 50 c-1 65 20 165 35 165 3
0 3 -30 -1 -66z m1700 31 c-1 -16 -56 -245 -71 -295 -13 -42 -13 -38 -9 75 5
123 18 199 37 223 12 14 43 12 43 -3z m832 -222 c-2 -21 -4 -4 -4 37 0 41 2
58 4 38 2 -21 2 -55 0 -75z m-1303 -8 c4 -25 4 -54 1 -65 -7 -23 -43 -27 -51
-5 -7 16 25 115 37 115 4 0 10 -20 13 -45z m894 0 c22 -48 8 -73 -31 -53 -13
6 -16 16 -11 36 12 51 25 56 42 17z m-2074 -225 c35 -71 80 -118 172 -181 41
-27 74 -54 74 -59 0 -13 -25 -3 -100 41 -142 83 -203 185 -224 374 -5 46 -3
43 22 -35 16 -47 41 -110 56 -140z m2866 145 c0 -49 -9 -85 -21 -85 -10 0 -12
93 -2 128 9 34 23 7 23 -43z m-2565 25 c9 -29 -4 -62 -23 -58 -18 3 -28 39
-18 64 8 21 34 17 41 -6z m1216 -241 c-6 -27 -20 -68 -30 -89 -12 -26 -15 -40
-8 -39 7 0 46 6 87 13 l75 12 -30 17 c-29 16 -28 16 55 11 92 -7 160 10 160
40 0 20 -19 20 -44 1 -25 -19 -50 -19 -66 0 -11 13 -9 15 13 15 13 0 30 7 37
15 14 17 105 21 129 6 11 -7 10 -14 -3 -43 -39 -82 -194 -126 -531 -153 l-80
-6 91 93 c100 103 127 138 139 183 l9 30 4 -28 c2 -15 -1 -51 -7 -78z m999
-128 c-25 -15 -130 -31 -194 -30 -75 1 -66 5 49 23 107 17 167 19 145 7z
m-1741 -12 c31 -11 41 -32 20 -44 -5 -4 -18 0 -28 9 -22 20 -44 20 -82 0 -37
-19 -104 -15 -104 6 0 11 9 14 38 12 28 -3 37 0 37 12 0 19 69 22 119 5z"/>
<path d="M3681 4705 c-101 -28 -160 -99 -161 -191 -1 -198 236 -324 343 -183
37 50 75 129 88 187 11 48 11 53 -18 103 -48 85 -139 115 -252 84z"/>
</g>
</svg>
